<?xml version="1.0" encoding="UTF-8" standalone="no"?>
<!-- Created with Inkscape (http://www.inkscape.org/) -->

<svg
   xmlns:dc="http://purl.org/dc/elements/1.1/"
   xmlns:cc="http://creativecommons.org/ns#"
   xmlns:rdf="http://www.w3.org/1999/02/22-rdf-syntax-ns#"
   xmlns:svg="http://www.w3.org/2000/svg"
   xmlns="http://www.w3.org/2000/svg"
   xmlns:sodipodi="http://sodipodi.sourceforge.net/DTD/sodipodi-0.dtd"
   xmlns:inkscape="http://www.inkscape.org/namespaces/inkscape"
   width="115.66869mm"
   height="56.798241mm"
   viewBox="0 0 115.66869 56.798241"
   version="1.1"
   id="svg3722"
   inkscape:version="0.92.4 (5da689c313, 2019-01-14)"
   sodipodi:docname="circuit_3_schematic.svg">
  <defs
     id="defs3716">
    <marker
       inkscape:isstock="true"
       style="overflow:visible"
       id="marker2986"
       refX="0"
       refY="0"
       orient="auto"
       inkscape:stockid="Arrow2Lend">
      <path
         transform="matrix(-1.1,0,0,-1.1,-1.1,0)"
         d="M 8.7185878,4.0337352 -2.2072895,0.01601326 8.7185884,-4.0017078 c -1.7454984,2.3720609 -1.7354408,5.6174519 -6e-7,8.035443 z"
         style="fill:#008000;fill-opacity:1;fill-rule:evenodd;stroke:none;stroke-width:0.625;stroke-linejoin:round;stroke-opacity:1"
         id="path2984"
         inkscape:connector-curvature="0" />
    </marker>
    <marker
       inkscape:stockid="Arrow2Lend"
       orient="auto"
       refY="0"
       refX="0"
       id="marker2916"
       style="overflow:visible"
       inkscape:isstock="true">
      <path
         inkscape:connector-curvature="0"
         id="path2914"
         style="fill:#008000;fill-opacity:1;fill-rule:evenodd;stroke:none;stroke-width:0.625;stroke-linejoin:round;stroke-opacity:1"
         d="M 8.7185878,4.0337352 -2.2072895,0.01601326 8.7185884,-4.0017078 c -1.7454984,2.3720609 -1.7354408,5.6174519 -6e-7,8.035443 z"
         transform="matrix(-1.1,0,0,-1.1,-1.1,0)" />
    </marker>
    <marker
       inkscape:stockid="Arrow2Lend"
       orient="auto"
       refY="0"
       refX="0"
       id="marker3512"
       style="overflow:visible"
       inkscape:isstock="true"
       inkscape:collect="always">
      <path
         inkscape:connector-curvature="0"
         id="path3510"
         style="fill:#008000;fill-opacity:1;fill-rule:evenodd;stroke:none;stroke-width:0.625;stroke-linejoin:round;stroke-opacity:1"
         d="M 8.7185878,4.0337352 -2.2072895,0.01601326 8.7185884,-4.0017078 c -1.7454984,2.3720609 -1.7354408,5.6174519 -6e-7,8.035443 z"
         transform="matrix(-1.1,0,0,-1.1,-1.1,0)" />
    </marker>
    <marker
       inkscape:isstock="true"
       style="overflow:visible"
       id="marker2986-3"
       refX="0"
       refY="0"
       orient="auto"
       inkscape:stockid="Arrow2Lend">
      <path
         transform="matrix(-1.1,0,0,-1.1,-1.1,0)"
         d="M 8.7185878,4.0337352 -2.2072895,0.01601326 8.7185884,-4.0017078 c -1.7454984,2.3720609 -1.7354408,5.6174519 -6e-7,8.035443 z"
         style="fill:#008000;fill-opacity:1;fill-rule:evenodd;stroke:none;stroke-width:0.625;stroke-linejoin:round;stroke-opacity:1"
         id="path2984-6"
         inkscape:connector-curvature="0" />
    </marker>
    <marker
       inkscape:stockid="Arrow2Lend"
       orient="auto"
       refY="0"
       refX="0"
       id="marker2916-7"
       style="overflow:visible"
       inkscape:isstock="true">
      <path
         inkscape:connector-curvature="0"
         id="path2914-5"
         style="fill:#008000;fill-opacity:1;fill-rule:evenodd;stroke:none;stroke-width:0.625;stroke-linejoin:round;stroke-opacity:1"
         d="M 8.7185878,4.0337352 -2.2072895,0.01601326 8.7185884,-4.0017078 c -1.7454984,2.3720609 -1.7354408,5.6174519 -6e-7,8.035443 z"
         transform="matrix(-1.1,0,0,-1.1,-1.1,0)" />
    </marker>
  </defs>
  <sodipodi:namedview
     id="base"
     pagecolor="#ffffff"
     bordercolor="#666666"
     borderopacity="1.0"
     inkscape:pageopacity="0.0"
     inkscape:pageshadow="2"
     inkscape:zoom="0.98994949"
     inkscape:cx="737.34072"
     inkscape:cy="461.26414"
     inkscape:document-units="mm"
     inkscape:current-layer="layer1"
     showgrid="false"
     inkscape:window-width="1920"
     inkscape:window-height="1163"
     inkscape:window-x="1920"
     inkscape:window-y="0"
     inkscape:window-maximized="1" />
  <metadata
     id="metadata3719">
    <rdf:RDF>
      <cc:Work
         rdf:about="">
        <dc:format>image/svg+xml</dc:format>
        <dc:type
           rdf:resource="http://purl.org/dc/dcmitype/StillImage" />
        <dc:title />
      </cc:Work>
    </rdf:RDF>
  </metadata>
  <g
     inkscape:label="Layer 1"
     inkscape:groupmode="layer"
     id="layer1"
     transform="translate(61.84339,-251.7629)">
    <path
       style="fill:none;stroke:#000000;stroke-width:1;stroke-linecap:butt;stroke-linejoin:miter;stroke-miterlimit:4;stroke-dasharray:none;stroke-opacity:1"
       d="M -3.9604655,279.14728 V 264.5952"
       id="path2606"
       inkscape:connector-curvature="0" />
    <path
       inkscape:connector-curvature="0"
       id="path2608"
       d="M -4.4589145,265.09096 H 10.622336"
       style="fill:none;stroke:#000000;stroke-width:1;stroke-linecap:butt;stroke-linejoin:miter;stroke-miterlimit:4;stroke-dasharray:none;stroke-opacity:1" />
    <path
       inkscape:connector-curvature="0"
       id="path2610"
       d="M -3.9604655,296.08062 V 281.52853"
       style="fill:none;stroke:#000000;stroke-width:1;stroke-linecap:butt;stroke-linejoin:miter;stroke-miterlimit:4;stroke-dasharray:none;stroke-opacity:1" />
    <text
       xml:space="preserve"
       style="font-style:normal;font-variant:normal;font-weight:normal;font-stretch:normal;font-size:12px;line-height:1.25;font-family:'Times New Roman';-inkscape-font-specification:'Times New Roman, ';letter-spacing:0px;word-spacing:0px;baseline-shift:baseline;fill:#000000;fill-opacity:1;stroke:none;stroke-width:0.26458332;stroke-opacity:1"
       x="14.591317"
       y="257.05457"
       id="text2618"><tspan
         sodipodi:role="line"
         id="tspan2616"
         x="14.591317"
         y="257.05457"
         style="font-style:normal;font-variant:normal;font-weight:normal;font-stretch:normal;font-size:8.46666622px;font-family:'Ubuntu Mono';-inkscape-font-specification:'Ubuntu Mono';baseline-shift:baseline;stroke-width:0.26458332">R<tspan
   id="tspan2614"
   style="font-size:5.50333261px;baseline-shift:sub;stroke-width:0.26458332">2</tspan></tspan></text>
    <text
       xml:space="preserve"
       style="font-style:normal;font-variant:normal;font-weight:normal;font-stretch:normal;font-size:12px;line-height:1.25;font-family:'Times New Roman';-inkscape-font-specification:'Times New Roman, ';letter-spacing:0px;word-spacing:0px;baseline-shift:baseline;fill:#ff0000;fill-opacity:1;stroke:none;stroke-width:0.26458332;stroke-opacity:1"
       x="43.953728"
       y="266.68677"
       id="text2624"><tspan
         sodipodi:role="line"
         id="tspan2622"
         x="43.953728"
         y="266.68677"
         style="font-style:normal;font-variant:normal;font-weight:normal;font-stretch:normal;font-size:8.46666622px;font-family:'Ubuntu Mono';-inkscape-font-specification:'Ubuntu Mono';baseline-shift:baseline;fill:#ff0000;stroke-width:0.26458332">u<tspan
   style="font-size:5.50333261px;baseline-shift:sub;fill:#ff0000;stroke-width:0.26458332"
   id="tspan2620">3</tspan></tspan></text>
    <text
       id="text2630"
       y="259.93951"
       x="-7.0832891"
       style="font-style:normal;font-variant:normal;font-weight:normal;font-stretch:normal;font-size:12px;line-height:1.25;font-family:'Times New Roman';-inkscape-font-specification:'Times New Roman, ';letter-spacing:0px;word-spacing:0px;baseline-shift:baseline;fill:#ff0000;fill-opacity:1;stroke:none;stroke-width:0.26458332;stroke-opacity:1"
       xml:space="preserve"><tspan
         style="font-style:normal;font-variant:normal;font-weight:normal;font-stretch:normal;font-size:8.46666622px;font-family:'Ubuntu Mono';-inkscape-font-specification:'Ubuntu Mono';baseline-shift:baseline;fill:#ff0000;stroke-width:0.26458332"
         y="259.93951"
         x="-7.0832891"
         id="tspan2628"
         sodipodi:role="line">u<tspan
   id="tspan2626"
   style="font-size:5.50333261px;baseline-shift:sub;fill:#ff0000;stroke-width:0.26458332">2</tspan></tspan></text>
    <path
       inkscape:connector-curvature="0"
       id="path2640"
       d="M 40.61276,296.33819 V 289.9126"
       style="fill:none;stroke:#000000;stroke-width:0.94999999;stroke-linecap:butt;stroke-linejoin:miter;stroke-miterlimit:4;stroke-dasharray:none;stroke-opacity:1" />
    <text
       xml:space="preserve"
       style="font-style:normal;font-variant:normal;font-weight:normal;font-stretch:normal;font-size:4.23333311px;line-height:1.25;font-family:'Times New Roman';-inkscape-font-specification:'Times New Roman, ';letter-spacing:0px;word-spacing:0px;fill:#000000;fill-opacity:1;stroke:none;stroke-width:0.26458332;stroke-opacity:1"
       x="28.782616"
       y="304.18225"
       id="text2636"><tspan
         sodipodi:role="line"
         id="tspan2634"
         x="28.782616"
         y="304.18225"
         style="font-style:normal;font-variant:normal;font-weight:normal;font-stretch:normal;font-size:8.46666622px;font-family:'Ubuntu Mono';-inkscape-font-specification:'Ubuntu Mono';fill:#008000;stroke-width:0.26458332">v<tspan
   style="font-size:5.50333261px;baseline-shift:sub;stroke-width:0.26458332"
   id="tspan2632">3</tspan></tspan></text>
    <text
       id="text2648"
       y="283.13492"
       x="-17.253212"
       style="font-style:normal;font-variant:normal;font-weight:normal;font-stretch:normal;font-size:12px;line-height:1.25;font-family:'Times New Roman';-inkscape-font-specification:'Times New Roman, ';letter-spacing:0px;word-spacing:0px;baseline-shift:baseline;fill:#000000;fill-opacity:1;stroke:none;stroke-width:0.26458332;stroke-opacity:1"
       xml:space="preserve"><tspan
         style="font-style:normal;font-variant:normal;font-weight:normal;font-stretch:normal;font-size:8.46666622px;font-family:'Ubuntu Mono';-inkscape-font-specification:'Ubuntu Mono';baseline-shift:baseline;stroke-width:0.26458332"
         y="283.13492"
         x="-17.253212"
         id="tspan2646"
         sodipodi:role="line">C<tspan
   style="font-size:5.50333261px;baseline-shift:sub;stroke-width:0.26458332"
   id="tspan2644">2</tspan></tspan></text>
    <text
       xml:space="preserve"
       style="font-style:normal;font-variant:normal;font-weight:normal;font-stretch:normal;font-size:12px;line-height:1.25;font-family:'Times New Roman';-inkscape-font-specification:'Times New Roman, ';letter-spacing:0px;word-spacing:0px;baseline-shift:baseline;fill:#000000;fill-opacity:1;stroke:none;stroke-width:0.26458332;stroke-opacity:1"
       x="47.181511"
       y="283.13492"
       id="text2654"><tspan
         sodipodi:role="line"
         id="tspan2652"
         x="47.181511"
         y="283.13492"
         style="font-style:normal;font-variant:normal;font-weight:normal;font-stretch:normal;font-size:8.46666622px;font-family:'Ubuntu Mono';-inkscape-font-specification:'Ubuntu Mono';baseline-shift:baseline;stroke-width:0.26458332">L<tspan
   id="tspan2650"
   style="font-size:5.50333261px;baseline-shift:sub;stroke-width:0.26458332">1</tspan></tspan></text>
    <rect
       height="0.699"
       width="5.9435134"
       y="304.27002"
       x="-6.9390326"
       id="rect2656"
       style="stroke-width:0.01961319" />
    <rect
       height="0.699"
       width="2.9756961"
       y="306.38806"
       x="-5.4496565"
       id="rect2658"
       style="stroke-width:0.01602471" />
    <rect
       style="stroke-width:0.02375178"
       id="rect2660"
       x="-8.3170538"
       y="302.12976"
       width="8.7164335"
       height="0.699" />
    <path
       style="fill:none;stroke:#000000;stroke-width:1.00025892;stroke-linecap:butt;stroke-linejoin:miter;stroke-miterlimit:4;stroke-dasharray:none;stroke-opacity:1"
       d="M -3.9598755,302.77088 V 288.21125"
       id="path2662"
       inkscape:connector-curvature="0" />
    <g
       id="g2698"
       transform="matrix(0.03332761,0,0,0.03332761,10.617016,257.74344)">
      <g
         id="g2666">
        <path
           d="m 350.272,323.014 c -5.974,0 -11.411,-3.556 -13.783,-9.091 l -50.422,-117.65 -40.505,116.662 c -2.08,5.989 -7.699,10.023 -14.038,10.08 -0.044,0 -0.089,0 -0.133,0 -6.286,0 -11.911,-3.921 -14.081,-9.831 L 175.331,198.826 134.533,313.06 c -2.095,5.867 -7.599,9.828 -13.827,9.952 -6.242,0.127 -11.886,-3.615 -14.213,-9.394 L 75.011,235.446 H 0 v -30 h 85.141 c 6.121,0 11.627,3.719 13.914,9.396 l 20.511,50.93 41.446,-116.048 c 2.124,-5.947 7.745,-9.927 14.06,-9.955 0.022,0 0.044,0 0.066,0 6.289,0 11.912,3.923 14.081,9.831 l 41.779,113.814 39.431,-113.565 c 2.032,-5.851 7.451,-9.852 13.64,-10.071 6.203,-0.217 11.877,3.389 14.317,9.082 l 49.683,115.927 15.254,-48.815 c 1.957,-6.262 7.756,-10.526 14.317,-10.526 h 85.141 v 30 h -74.113 l -24.076,77.043 c -1.873,5.994 -7.281,10.186 -13.553,10.506 -0.255,0.012 -0.512,0.019 -0.767,0.019 z"
           id="path2664"
           inkscape:connector-curvature="0" />
      </g>
      <g
         id="g2668" />
      <g
         id="g2670" />
      <g
         id="g2672" />
      <g
         id="g2674" />
      <g
         id="g2676" />
      <g
         id="g2678" />
      <g
         id="g2680" />
      <g
         id="g2682" />
      <g
         id="g2684" />
      <g
         id="g2686" />
      <g
         id="g2688" />
      <g
         id="g2690" />
      <g
         id="g2692" />
      <g
         id="g2694" />
      <g
         id="g2696" />
    </g>
    <path
       style="fill:none;stroke:#000000;stroke-width:1;stroke-linecap:butt;stroke-linejoin:miter;stroke-miterlimit:4;stroke-dasharray:none;stroke-opacity:1"
       d="M 25.703586,265.09096 H 40.78484"
       id="path2700"
       inkscape:connector-curvature="0" />
    <g
       id="g2714"
       transform="translate(-100.68528,332.79635)">
      <path
         inkscape:connector-curvature="0"
         id="path2710"
         d="m 91.931782,-53.98097 h 9.473978"
         style="fill:none;stroke:#000000;stroke-width:0.80686957;stroke-linecap:butt;stroke-linejoin:miter;stroke-miterlimit:4;stroke-dasharray:none;stroke-opacity:1" />
      <path
         style="fill:none;stroke:#000000;stroke-width:0.80686957;stroke-linecap:butt;stroke-linejoin:miter;stroke-miterlimit:4;stroke-dasharray:none;stroke-opacity:1"
         d="m 91.931782,-51.335135 h 9.473978"
         id="path2712"
         inkscape:connector-curvature="0" />
    </g>
    <path
       inkscape:connector-curvature="0"
       id="path2716"
       d="M -48.939494,279.14728 V 264.5952"
       style="fill:none;stroke:#000000;stroke-width:1;stroke-linecap:butt;stroke-linejoin:miter;stroke-miterlimit:4;stroke-dasharray:none;stroke-opacity:1" />
    <path
       style="fill:none;stroke:#000000;stroke-width:1;stroke-linecap:butt;stroke-linejoin:miter;stroke-miterlimit:4;stroke-dasharray:none;stroke-opacity:1"
       d="m -49.437945,265.09096 h 15.08125"
       id="path2718"
       inkscape:connector-curvature="0" />
    <path
       style="fill:none;stroke:#000000;stroke-width:1;stroke-linecap:butt;stroke-linejoin:miter;stroke-miterlimit:4;stroke-dasharray:none;stroke-opacity:1"
       d="M -48.939494,296.08062 V 281.52853"
       id="path2720"
       inkscape:connector-curvature="0" />
    <text
       id="text2728"
       y="257.05457"
       x="-30.388298"
       style="font-style:normal;font-variant:normal;font-weight:normal;font-stretch:normal;font-size:12px;line-height:1.25;font-family:'Times New Roman';-inkscape-font-specification:'Times New Roman, ';letter-spacing:0px;word-spacing:0px;baseline-shift:baseline;fill:#000000;fill-opacity:1;stroke:none;stroke-width:0.26458332;stroke-opacity:1"
       xml:space="preserve"><tspan
         style="font-style:normal;font-variant:normal;font-weight:normal;font-stretch:normal;font-size:8.46666622px;font-family:'Ubuntu Mono';-inkscape-font-specification:'Ubuntu Mono';baseline-shift:baseline;stroke-width:0.26458332"
         y="257.05457"
         x="-30.388298"
         id="tspan2726"
         sodipodi:role="line">R<tspan
   style="font-size:5.50333261px;baseline-shift:sub;stroke-width:0.26458332"
   id="tspan2724">1</tspan></tspan></text>
    <text
       xml:space="preserve"
       style="font-style:normal;font-variant:normal;font-weight:normal;font-stretch:normal;font-size:12px;line-height:1.25;font-family:'Times New Roman';-inkscape-font-specification:'Times New Roman, ';letter-spacing:0px;word-spacing:0px;baseline-shift:baseline;fill:#ff0000;fill-opacity:1;stroke:none;stroke-width:0.26458332;stroke-opacity:1"
       x="-58.477394"
       y="266.0867"
       id="text2734"><tspan
         sodipodi:role="line"
         id="tspan2732"
         x="-58.477394"
         y="266.0867"
         style="font-style:normal;font-variant:normal;font-weight:normal;font-stretch:normal;font-size:8.46666622px;font-family:'Ubuntu Mono';-inkscape-font-specification:'Ubuntu Mono';baseline-shift:baseline;fill:#ff0000;stroke-width:0.26458332">u<tspan
   style="font-size:5.50333261px;baseline-shift:sub;fill:#ff0000;stroke-width:0.26458332"
   id="tspan2730">1</tspan></tspan></text>
    <circle
       r="1.3229167"
       cy="265.05823"
       cx="-48.909203"
       id="circle2736"
       style="fill:#ff0000;fill-opacity:1;stroke:#000000;stroke-width:0.5;stroke-miterlimit:4;stroke-dasharray:none;stroke-dashoffset:0;stroke-opacity:1" />
    <text
       id="text2742"
       y="304.18225"
       x="-43.713829"
       style="font-style:normal;font-variant:normal;font-weight:normal;font-stretch:normal;font-size:4.23333311px;line-height:1.25;font-family:'Times New Roman';-inkscape-font-specification:'Times New Roman, ';letter-spacing:0px;word-spacing:0px;fill:#000000;fill-opacity:1;stroke:none;stroke-width:0.26458332;stroke-opacity:1"
       xml:space="preserve"><tspan
         style="font-style:normal;font-variant:normal;font-weight:normal;font-stretch:normal;font-size:8.46666622px;font-family:'Ubuntu Mono';-inkscape-font-specification:'Ubuntu Mono';fill:#008000;stroke-width:0.26458332"
         y="304.18225"
         x="-43.713829"
         id="tspan2740"
         sodipodi:role="line">v<tspan
   id="tspan2738"
   style="font-size:5.50333261px;baseline-shift:sub;stroke-width:0.26458332">1</tspan></tspan></text>
    <text
       xml:space="preserve"
       style="font-style:normal;font-variant:normal;font-weight:normal;font-stretch:normal;font-size:12px;line-height:1.25;font-family:'Times New Roman';-inkscape-font-specification:'Times New Roman, ';letter-spacing:0px;word-spacing:0px;baseline-shift:baseline;fill:#000000;fill-opacity:1;stroke:none;stroke-width:0.26458332;stroke-opacity:1"
       x="-62.232857"
       y="283.13492"
       id="text2750"><tspan
         sodipodi:role="line"
         id="tspan2748"
         x="-62.232857"
         y="283.13492"
         style="font-style:normal;font-variant:normal;font-weight:normal;font-stretch:normal;font-size:8.46666622px;font-family:'Ubuntu Mono';-inkscape-font-specification:'Ubuntu Mono';baseline-shift:baseline;stroke-width:0.26458332">C<tspan
   id="tspan2746"
   style="font-size:5.50333261px;baseline-shift:sub;stroke-width:0.26458332">1</tspan></tspan></text>
    <g
       transform="matrix(0.03332761,0,0,0.03332761,-34.362024,257.74344)"
       id="g2786">
      <g
         id="g2754">
        <path
           inkscape:connector-curvature="0"
           id="path2752"
           d="m 350.272,323.014 c -5.974,0 -11.411,-3.556 -13.783,-9.091 l -50.422,-117.65 -40.505,116.662 c -2.08,5.989 -7.699,10.023 -14.038,10.08 -0.044,0 -0.089,0 -0.133,0 -6.286,0 -11.911,-3.921 -14.081,-9.831 L 175.331,198.826 134.533,313.06 c -2.095,5.867 -7.599,9.828 -13.827,9.952 -6.242,0.127 -11.886,-3.615 -14.213,-9.394 L 75.011,235.446 H 0 v -30 h 85.141 c 6.121,0 11.627,3.719 13.914,9.396 l 20.511,50.93 41.446,-116.048 c 2.124,-5.947 7.745,-9.927 14.06,-9.955 0.022,0 0.044,0 0.066,0 6.289,0 11.912,3.923 14.081,9.831 l 41.779,113.814 39.431,-113.565 c 2.032,-5.851 7.451,-9.852 13.64,-10.071 6.203,-0.217 11.877,3.389 14.317,9.082 l 49.683,115.927 15.254,-48.815 c 1.957,-6.262 7.756,-10.526 14.317,-10.526 h 85.141 v 30 h -74.113 l -24.076,77.043 c -1.873,5.994 -7.281,10.186 -13.553,10.506 -0.255,0.012 -0.512,0.019 -0.767,0.019 z" />
      </g>
      <g
         id="g2756" />
      <g
         id="g2758" />
      <g
         id="g2760" />
      <g
         id="g2762" />
      <g
         id="g2764" />
      <g
         id="g2766" />
      <g
         id="g2768" />
      <g
         id="g2770" />
      <g
         id="g2772" />
      <g
         id="g2774" />
      <g
         id="g2776" />
      <g
         id="g2778" />
      <g
         id="g2780" />
      <g
         id="g2782" />
      <g
         id="g2784" />
    </g>
    <path
       inkscape:connector-curvature="0"
       id="path2788"
       d="M -19.275445,265.09096 H -4.1941955"
       style="fill:none;stroke:#000000;stroke-width:1;stroke-linecap:butt;stroke-linejoin:miter;stroke-miterlimit:4;stroke-dasharray:none;stroke-opacity:1" />
    <circle
       style="fill:#ff0000;fill-opacity:1;stroke:#000000;stroke-width:0.5;stroke-miterlimit:4;stroke-dasharray:none;stroke-dashoffset:0;stroke-opacity:1"
       id="circle2790"
       cx="-3.9295721"
       cy="265.05823"
       r="1.3229167" />
    <g
       transform="translate(-145.6644,332.79635)"
       id="g2796">
      <path
         style="fill:none;stroke:#000000;stroke-width:0.80686957;stroke-linecap:butt;stroke-linejoin:miter;stroke-miterlimit:4;stroke-dasharray:none;stroke-opacity:1"
         d="m 91.931782,-53.98097 h 9.473978"
         id="path2792"
         inkscape:connector-curvature="0" />
      <path
         inkscape:connector-curvature="0"
         id="path2794"
         d="m 91.931782,-51.335135 h 9.473978"
         style="fill:none;stroke:#000000;stroke-width:0.80686957;stroke-linecap:butt;stroke-linejoin:miter;stroke-miterlimit:4;stroke-dasharray:none;stroke-opacity:1" />
    </g>
    <text
       id="text2802"
       y="290.66959"
       x="0.16985413"
       style="font-style:normal;font-variant:normal;font-weight:normal;font-stretch:normal;font-size:4.23333311px;line-height:1.25;font-family:'Times New Roman';-inkscape-font-specification:'Times New Roman, ';letter-spacing:0px;word-spacing:0px;fill:#000000;fill-opacity:1;stroke:none;stroke-width:0.26458332;stroke-opacity:1"
       xml:space="preserve"><tspan
         style="font-style:normal;font-variant:normal;font-weight:normal;font-stretch:normal;font-size:8.46666622px;font-family:'Ubuntu Mono';-inkscape-font-specification:'Ubuntu Mono';fill:#008000;stroke-width:0.26458332"
         y="290.66959"
         x="0.16985413"
         id="tspan2800"
         sodipodi:role="line">v<tspan
   id="tspan2798"
   style="font-size:5.50333261px;baseline-shift:sub;stroke-width:0.26458332">2</tspan></tspan></text>
    <path
       inkscape:connector-curvature="0"
       id="path2804"
       d="m -3.9575945,280.22132 v 10.58332"
       style="fill:#008000;fill-opacity:1;stroke:none;stroke-width:0.40799999;stroke-linecap:butt;stroke-linejoin:miter;stroke-miterlimit:4;stroke-dasharray:none;stroke-opacity:1;marker-end:url(#marker2916-7)" />
    <g
       transform="matrix(0.3333029,0,0,0.3333029,35.62358,-58.285678)"
       inkscape:label="Livello 1"
       id="layer1-2">
      <g
         transform="translate(-60,4.7244e-6)"
         id="g5874">
        <path
           sodipodi:nodetypes="cszzzzzsc"
           inkscape:connector-curvature="0"
           style="fill:none;stroke:#000000;stroke-width:2.83500004;stroke-linecap:round"
           d="m 75,994.03 c 0,0 10,1.4854 10,5.8333 0,5.8333 -20,11.667 -20,5.8333 0,-5.8333 20,0 20,5.8334 0,5.8333 -20,11.667 -20,5.8333 0,-5.8333 20,0 20,5.8333 0,5.8334 -20,11.667 -20,5.8334 0,-5.8334 20,0 20,5.8333 0,4.3479 -10,5.8333 -10,5.8333"
           id="path7074" />
        <path
           inkscape:connector-curvature="0"
           d="m 75,982.36 v 11.667"
           style="fill:none;stroke:#000000;stroke-width:2.83500004"
           id="path3430" />
        <path
           inkscape:connector-curvature="0"
           d="m 75,1040.7 v 11.667"
           style="fill:none;stroke:#000000;stroke-width:2.83500004"
           id="path3432" />
      </g>
    </g>
    <path
       style="fill:none;stroke:#000000;stroke-width:0.94;stroke-linecap:butt;stroke-linejoin:miter;stroke-miterlimit:4;stroke-dasharray:none;stroke-opacity:1"
       d="m 40.62456,269.26238 v -4.22062"
       id="path2870"
       inkscape:connector-curvature="0" />
    <circle
       cy="265.05823"
       cx="40.600761"
       id="circle2702"
       style="fill:#ff0000;fill-opacity:1;stroke:#000000;stroke-width:0.5;stroke-miterlimit:4;stroke-dasharray:none;stroke-dashoffset:0;stroke-opacity:1"
       r="1.3229167" />
    <text
       id="text2876"
       y="306.79626"
       x="14.591317"
       style="font-style:normal;font-variant:normal;font-weight:normal;font-stretch:normal;font-size:12px;line-height:1.25;font-family:'Times New Roman';-inkscape-font-specification:'Times New Roman, ';letter-spacing:0px;word-spacing:0px;baseline-shift:baseline;fill:#000000;fill-opacity:1;stroke:none;stroke-width:0.26458332;stroke-opacity:1"
       xml:space="preserve"><tspan
         style="font-style:normal;font-variant:normal;font-weight:normal;font-stretch:normal;font-size:8.46666622px;font-family:'Ubuntu Mono';-inkscape-font-specification:'Ubuntu Mono';baseline-shift:baseline;stroke-width:0.26458332"
         y="306.79626"
         x="14.591317"
         id="tspan2874"
         sodipodi:role="line">R<tspan
   style="font-size:5.50333261px;baseline-shift:sub;stroke-width:0.26458332"
   id="tspan2872">3</tspan></tspan></text>
    <g
       transform="matrix(0.03332761,0,0,0.03332761,10.617016,288.62409)"
       id="g2912">
      <g
         id="g2880">
        <path
           inkscape:connector-curvature="0"
           id="path2878"
           d="m 350.272,323.014 c -5.974,0 -11.411,-3.556 -13.783,-9.091 l -50.422,-117.65 -40.505,116.662 c -2.08,5.989 -7.699,10.023 -14.038,10.08 -0.044,0 -0.089,0 -0.133,0 -6.286,0 -11.911,-3.921 -14.081,-9.831 L 175.331,198.826 134.533,313.06 c -2.095,5.867 -7.599,9.828 -13.827,9.952 -6.242,0.127 -11.886,-3.615 -14.213,-9.394 L 75.011,235.446 H 0 v -30 h 85.141 c 6.121,0 11.627,3.719 13.914,9.396 l 20.511,50.93 41.446,-116.048 c 2.124,-5.947 7.745,-9.927 14.06,-9.955 0.022,0 0.044,0 0.066,0 6.289,0 11.912,3.923 14.081,9.831 l 41.779,113.814 39.431,-113.565 c 2.032,-5.851 7.451,-9.852 13.64,-10.071 6.203,-0.217 11.877,3.389 14.317,9.082 l 49.683,115.927 15.254,-48.815 c 1.957,-6.262 7.756,-10.526 14.317,-10.526 h 85.141 v 30 h -74.113 l -24.076,77.043 c -1.873,5.994 -7.281,10.186 -13.553,10.506 -0.255,0.012 -0.512,0.019 -0.767,0.019 z" />
      </g>
      <g
         id="g2882" />
      <g
         id="g2884" />
      <g
         id="g2886" />
      <g
         id="g2888" />
      <g
         id="g2890" />
      <g
         id="g2892" />
      <g
         id="g2894" />
      <g
         id="g2896" />
      <g
         id="g2898" />
      <g
         id="g2900" />
      <g
         id="g2902" />
      <g
         id="g2904" />
      <g
         id="g2906" />
      <g
         id="g2908" />
      <g
         id="g2910" />
    </g>
    <text
       xml:space="preserve"
       style="font-style:normal;font-variant:normal;font-weight:normal;font-stretch:normal;font-size:12px;line-height:1.25;font-family:'Times New Roman';-inkscape-font-specification:'Times New Roman, ';letter-spacing:0px;word-spacing:0px;baseline-shift:baseline;fill:#000000;fill-opacity:1;stroke:none;stroke-width:0.26458332;stroke-opacity:1"
       x="-30.388298"
       y="306.45609"
       id="text3746"><tspan
         sodipodi:role="line"
         id="tspan3744"
         x="-30.388298"
         y="306.45609"
         style="font-style:normal;font-variant:normal;font-weight:normal;font-stretch:normal;font-size:8.46666622px;font-family:'Ubuntu Mono';-inkscape-font-specification:'Ubuntu Mono';baseline-shift:baseline;stroke-width:0.26458332">R<tspan
   id="tspan3742"
   style="font-size:5.50333261px;baseline-shift:sub;stroke-width:0.26458332">4</tspan></tspan></text>
    <g
       id="g3782"
       transform="matrix(0.03332761,0,0,0.03332761,-34.362024,288.6241)">
      <g
         id="g3750">
        <path
           d="m 350.272,323.014 c -5.974,0 -11.411,-3.556 -13.783,-9.091 l -50.422,-117.65 -40.505,116.662 c -2.08,5.989 -7.699,10.023 -14.038,10.08 -0.044,0 -0.089,0 -0.133,0 -6.286,0 -11.911,-3.921 -14.081,-9.831 L 175.331,198.826 134.533,313.06 c -2.095,5.867 -7.599,9.828 -13.827,9.952 -6.242,0.127 -11.886,-3.615 -14.213,-9.394 L 75.011,235.446 H 0 v -30 h 85.141 c 6.121,0 11.627,3.719 13.914,9.396 l 20.511,50.93 41.446,-116.048 c 2.124,-5.947 7.745,-9.927 14.06,-9.955 0.022,0 0.044,0 0.066,0 6.289,0 11.912,3.923 14.081,9.831 l 41.779,113.814 39.431,-113.565 c 2.032,-5.851 7.451,-9.852 13.64,-10.071 6.203,-0.217 11.877,3.389 14.317,9.082 l 49.683,115.927 15.254,-48.815 c 1.957,-6.262 7.756,-10.526 14.317,-10.526 h 85.141 v 30 h -74.113 l -24.076,77.043 c -1.873,5.994 -7.281,10.186 -13.553,10.506 -0.255,0.012 -0.512,0.019 -0.767,0.019 z"
           id="path3748"
           inkscape:connector-curvature="0" />
      </g>
      <g
         id="g3752" />
      <g
         id="g3754" />
      <g
         id="g3756" />
      <g
         id="g3758" />
      <g
         id="g3760" />
      <g
         id="g3762" />
      <g
         id="g3764" />
      <g
         id="g3766" />
      <g
         id="g3768" />
      <g
         id="g3770" />
      <g
         id="g3772" />
      <g
         id="g3774" />
      <g
         id="g3776" />
      <g
         id="g3778" />
      <g
         id="g3780" />
    </g>
    <path
       style="fill:none;stroke:#000000;stroke-width:1;stroke-linecap:butt;stroke-linejoin:miter;stroke-miterlimit:4;stroke-dasharray:none;stroke-opacity:1"
       d="M -4.4589145,295.9647 H 10.622336"
       id="path3784"
       inkscape:connector-curvature="0" />
    <path
       inkscape:connector-curvature="0"
       id="path3786"
       d="M 25.703586,295.9647 H 41.08552"
       style="fill:none;stroke:#000000;stroke-width:1;stroke-linecap:butt;stroke-linejoin:miter;stroke-miterlimit:4;stroke-dasharray:none;stroke-opacity:1" />
    <path
       style="fill:#008000;fill-opacity:1;stroke:none;stroke-width:0.40824834;stroke-linecap:butt;stroke-linejoin:miter;stroke-miterlimit:4;stroke-dasharray:none;stroke-opacity:1;marker-end:url(#marker2986-3)"
       d="M 40.53016,295.94511 H 29.946826"
       id="path2638"
       inkscape:connector-curvature="0" />
    <path
       inkscape:connector-curvature="0"
       id="path3788"
       d="m -49.437945,295.97162 h 15.08125"
       style="fill:none;stroke:#000000;stroke-width:1;stroke-linecap:butt;stroke-linejoin:miter;stroke-miterlimit:4;stroke-dasharray:none;stroke-opacity:1" />
    <path
       style="fill:none;stroke:#000000;stroke-width:1;stroke-linecap:butt;stroke-linejoin:miter;stroke-miterlimit:4;stroke-dasharray:none;stroke-opacity:1"
       d="M -19.275445,295.9647 H -4.1941955"
       id="path3790"
       inkscape:connector-curvature="0" />
    <path
       inkscape:connector-curvature="0"
       id="path2744"
       d="M -31.965415,295.94511 H -42.548744"
       style="fill:#008000;fill-opacity:1;stroke:none;stroke-width:0.40824834;stroke-linecap:butt;stroke-linejoin:miter;stroke-miterlimit:4;stroke-dasharray:none;stroke-opacity:1;marker-end:url(#marker3512)" />
  </g>
</svg>
